<?xml version="1.0" encoding="UTF-8"?>
<svg version="1.1" xmlns="http://www.w3.org/2000/svg" width="512" height="512">
<path d="M0 0 C0.70044434 0.16097168 1.40088867 0.32194336 2.12255859 0.48779297 C42.63531237 9.84103686 78.19551639 35.14660769 100.5859375 70.06640625 C120.86572465 102.6123236 126.11416663 141.68377628 118.19921875 179 C115.55185341 190.39602966 111.70792769 201.17293445 107.0390625 211.890625 C105.88449546 214.78398959 105.88449546 214.78398959 106.01953125 217.08984375 C107.53098188 220.03446271 109.69695885 222.01203564 112.0625 224.3125 C112.56346191 224.80250488 113.06442383 225.29250977 113.58056641 225.79736328 C116.87395242 228.99372991 120.28168958 232.01773557 123.7734375 234.9921875 C126.79581844 237.71763277 129.63917767 240.60666371 132.5 243.5 C135.89005591 246.92845382 139.25194033 250.32260763 142.9375 253.4375 C147.51351762 257.313999 151.64986201 261.6252468 155.86474609 265.88427734 C159.41441758 269.45681919 163.03148977 272.84596877 166.87890625 276.09765625 C170.47737461 279.32501185 173.8252353 282.80624973 177.22290039 286.24243164 C180.06657686 289.10590456 182.91883927 291.88884684 186 294.5 C189.70378566 297.63880141 193.08929145 301.05062676 196.5 304.5 C199.89006118 307.92844828 203.25193982 311.3226072 206.9375 314.4375 C211.51351762 318.313999 215.64986201 322.6252468 219.86474609 326.88427734 C223.41441758 330.45681919 227.03148977 333.84596877 230.87890625 337.09765625 C234.47737461 340.32501185 237.8252353 343.80624973 241.22290039 347.24243164 C244.06657686 350.10590456 246.91883927 352.88884684 250 355.5 C253.70378566 358.63880141 257.08929145 362.05062676 260.5 365.5 C263.89006118 368.92844828 267.25193982 372.3226072 270.9375 375.4375 C275.50879391 379.30999739 279.64118424 383.61630222 283.8515625 387.87109375 C287.52841347 391.57176881 291.28075923 395.10079173 295.25390625 398.484375 C304.1942749 406.24469499 304.1942749 406.24469499 306 411 C306.19649632 413.94114216 306.28345068 416.78724287 306.2746582 419.72827148 C306.2823246 421.04846283 306.2823246 421.04846283 306.29014587 422.39532471 C306.30404314 425.30398361 306.30308503 428.2124056 306.30078125 431.12109375 C306.30466804 433.14364205 306.30900268 435.16618954 306.31376648 437.18873596 C306.32122894 441.4280156 306.32093717 445.66721197 306.31567383 449.90649414 C306.30987855 455.33839911 306.32681158 460.76996319 306.3500185 466.20181179 C306.36475173 470.37882988 306.3656281 474.55576578 306.36250877 478.73280525 C306.36302217 480.73547097 306.36826335 482.73814126 306.37832069 484.74078178 C306.39065999 487.54152443 306.38390848 490.34160195 306.37231445 493.14233398 C306.37995819 493.96899063 306.38760193 494.79564728 306.39547729 495.64735413 C306.35336852 500.25054204 305.99515349 503.27206138 303 507 C299.23272385 509.51151743 296.22977026 509.30981252 291.86352539 509.32226562 C291.03380219 509.33219543 290.20407898 509.34212524 289.34921265 509.35235596 C286.59866013 509.38160686 283.84833891 509.39520974 281.09765625 509.40625 C279.18012997 509.4177595 277.26260373 509.42927488 275.34507751 509.4407959 C271.31752451 509.46182296 267.29005135 509.47350122 263.26245117 509.48046875 C258.12793606 509.49139067 252.99449457 509.53933695 247.86031437 509.59641266 C243.89402823 509.63387902 239.927994 509.64408816 235.96154594 509.6471405 C234.07067485 509.65315501 232.17980612 509.66908069 230.28911018 509.69551086 C218.30158752 509.85101007 208.11495241 509.50215158 198.75233459 500.94592285 C191.99494761 493.93315315 190.65639956 487.65407694 190.73632812 478.14257812 C190.76146484 476.96115234 190.78660156 475.77972656 190.8125 474.5625 C190.82603516 473.35400391 190.83957031 472.14550781 190.85351562 470.90039062 C190.88870054 467.93312918 190.93793304 464.96680063 191 462 C190.39003174 462.01571045 189.78006348 462.0314209 189.15161133 462.04760742 C186.3720029 462.11019813 183.59254308 462.14906622 180.8125 462.1875 C179.37293945 462.22520508 179.37293945 462.22520508 177.90429688 462.26367188 C168.75210161 462.35867736 168.75210161 462.35867736 165 459 C161.38534479 454.42348635 161.60547504 450.33112728 161.70703125 444.76171875 C161.71127609 443.88095169 161.71552094 443.00018463 161.71989441 442.09272766 C161.73663356 439.2906689 161.7742767 436.48933991 161.8125 433.6875 C161.82755301 431.78321354 161.84124034 429.87891576 161.85351562 427.97460938 C161.88652146 423.31612678 161.93827071 418.65818695 162 414 C160.77893555 414.01047363 159.55787109 414.02094727 158.29980469 414.03173828 C153.76744521 414.06795151 149.23509852 414.09090535 144.70263672 414.10986328 C142.74135182 414.11991783 140.78008189 414.13356333 138.81884766 414.15087891 C135.99898582 414.17515113 133.17932228 414.18648859 130.359375 414.1953125 C129.48319519 414.20563507 128.60701538 414.21595764 127.70428467 414.22659302 C126.88373596 414.22674408 126.06318726 414.22689514 125.21777344 414.22705078 C124.49829529 414.231492 123.77881714 414.23593323 123.03753662 414.24050903 C120.61783669 413.95488978 119.06199979 413.28973042 117 412 C112.69900802 405.3407113 113.66534675 397.71724528 113.8125 390.0625 C113.82757008 388.69728034 113.84125439 387.33204465 113.85351562 385.96679688 C113.88873836 382.64411904 113.93799959 379.32226819 114 376 C113.08186523 376.01047363 112.16373047 376.02094727 111.21777344 376.03173828 C107.80352254 376.06587215 104.38945362 376.0909241 100.97509766 376.10986328 C99.49883153 376.11990591 98.02258521 376.13354265 96.54638672 376.15087891 C94.42149966 376.17520421 92.29687615 376.1865004 90.171875 376.1953125 C88.8940918 376.20578613 87.61630859 376.21625977 86.29980469 376.22705078 C83.18718095 376.01287942 81.52968804 375.7612223 79 374 C74.69900802 367.3407113 75.66534675 359.71724528 75.8125 352.0625 C75.82757008 350.69728034 75.84125439 349.33204465 75.85351562 347.96679688 C75.88873836 344.64411904 75.93799959 341.32226819 76 338 C74.81446533 338.01571045 73.62893066 338.0314209 72.4074707 338.04760742 C67.999988 338.10199565 63.59253485 338.13638246 59.18481445 338.16479492 C57.27883919 338.17986128 55.37289848 338.20031824 53.46704102 338.22631836 C50.72403424 338.26279642 47.98148672 338.27974792 45.23828125 338.29296875 C44.38913651 338.30845261 43.53999176 338.32393646 42.66511536 338.33988953 C37.93349633 338.34122896 34.79334289 338.1253911 31 335 C29.46602219 333.29162882 27.99609563 331.52456818 26.578125 329.71875 C17.8457127 318.5053291 17.8457127 318.5053291 5.65527344 312.44580078 C-1.04984305 312.80884131 -7.14544589 314.79574104 -13.41259766 317.09521484 C-21.77747814 320.02031836 -31.11830435 319.24282208 -39.875 319.25 C-40.61332062 319.25067474 -41.35164124 319.25134949 -42.11233521 319.25204468 C-53.33476087 319.23575227 -64.07449996 318.71087813 -75 316 C-75.73138184 315.82839355 -76.46276367 315.65678711 -77.21630859 315.47998047 C-88.38227861 312.82209482 -98.64564798 308.91489617 -109 304 C-109.92296875 303.57847656 -110.8459375 303.15695312 -111.796875 302.72265625 C-148.48590411 285.37131605 -175.91572857 250.19753823 -189.41870117 212.55200195 C-203.02589512 172.91440586 -201.41717754 126.51909034 -182.8984375 88.58984375 C-161.46231749 46.34711781 -126.65594761 17.87734329 -82.2578125 2.72265625 C-78.85788572 1.68226295 -75.46241744 0.80711758 -72 0 C-70.8140625 -0.29777344 -69.628125 -0.59554688 -68.40625 -0.90234375 C-47.1761851 -5.63102679 -21.06821895 -5.27239117 0 0 Z M-120 82 C-129.25944499 94.07004003 -134.53326995 108.70563225 -133 124 C-129.999802 140.87611373 -122.88861698 154.46111278 -109.23046875 165.171875 C-95.57404643 174.31523072 -80.76421273 176.63489916 -64.67578125 174.57421875 C-49.24381037 171.21585927 -36.15664825 161.83242417 -27.5625 148.6875 C-19.49235167 134.5978148 -17.27066279 119.77940669 -21 104 C-25.08153045 89.62071701 -33.56086775 78.28728468 -46 70 C-71.38412461 55.91453706 -100.17008574 60.29814184 -120 82 Z " fill="#000000" transform="translate(202,3)"/>
</svg>
