<svg xmlns="http://www.w3.org/2000/svg" width="512" height="512" viewBox="0 0 512 512" version="1.1"><path d="M 223.564 1.625 C 177.870 7.477, 131.882 27.149, 95 56.620 C 84.098 65.331, 65.331 84.098, 56.620 95 C 45.563 108.837, 34.308 126.502, 26.406 142.420 C 22.333 150.625, 19 157.938, 19 158.670 C 19 160.724, 167.543 160.636, 168.700 158.580 C 170.335 155.679, 183.819 146.590, 193.500 141.865 C 199 139.181, 208 135.791, 213.500 134.334 C 222.293 132.003, 225.371 131.686, 239 131.705 C 252.491 131.724, 255.796 132.067, 264.500 134.356 C 270.197 135.854, 279.040 139.247, 285.052 142.243 L 295.603 147.500 299.002 140.572 C 306.549 125.191, 323.904 111.592, 341.188 107.518 C 354.250 104.438, 376.211 106.608, 379.499 111.303 C 382.896 116.152, 380.884 121.104, 374.249 124.223 C 368.571 126.892, 362.848 132.449, 359.846 138.209 C 358.061 141.633, 357.598 144.217, 357.554 151 L 357.500 159.500 425.732 159.757 L 493.965 160.014 492.432 156.757 C 479.613 129.528, 469.498 112.669, 455.380 95 C 446.669 84.098, 427.902 65.331, 417 56.620 C 379.589 26.727, 333.716 7.284, 287.030 1.536 C 271.561 -0.369, 238.774 -0.323, 223.564 1.625 M 344.335 122.423 C 330.866 125.689, 317.886 136.167, 311.982 148.538 C 309.456 153.830, 308.931 155.885, 309.617 157.781 L 310.500 160.220 325.423 160.062 C 333.630 159.976, 340.688 159.693, 341.107 159.434 C 341.526 159.175, 341.620 157.434, 341.317 155.565 C 340.043 147.718, 344.700 132.016, 350.591 124.292 C 353.504 120.472, 352.999 120.321, 344.335 122.423 M 228.299 147.012 C 219.007 148.295, 207.326 151.821, 199.750 155.631 C 196.037 157.498, 193 159.244, 193 159.513 C 193 159.781, 213.475 160, 238.500 160 C 263.525 160, 284 159.617, 284 159.148 C 284 158.060, 271.848 152.441, 265.270 150.487 C 253.586 147.018, 238.520 145.602, 228.299 147.012" stroke="none" fill="#24b0e6" fill-rule="evenodd"/><path d="M 13.139 174.500 C 3.710 202.741, 0 225.752, -0 256 C -0 296.760, 8.206 332.295, 25.979 368.500 C 38.944 394.911, 54.264 416.352, 74.956 437.044 C 116.649 478.737, 170.688 504.628, 229.211 510.951 C 243.248 512.467, 271.469 512.239, 286.441 510.488 C 332.832 505.061, 379.452 485.383, 417 455.380 C 427.902 446.669, 446.669 427.902, 455.380 417 C 484.912 380.042, 505.675 331.196, 510.283 287.838 C 510.916 281.877, 511.787 277, 512.217 277 C 512.648 277, 512.993 266.988, 512.985 254.750 C 512.976 242.450, 512.596 233.089, 512.134 233.817 C 511.625 234.620, 511.032 231.888, 510.614 226.817 C 509.315 211.028, 503.831 187.668, 496.985 168.764 L 493.821 160.027 425.549 159.764 L 357.278 159.500 358.261 162.320 C 361.217 170.797, 370.482 179.651, 378.823 181.967 C 387.712 184.437, 397.950 182.686, 405.982 177.324 C 412.492 172.979, 419.212 175.378, 419.187 182.040 C 419.155 190.896, 412.010 204.865, 402.299 215.060 L 395.098 222.619 401.365 229.169 C 408.508 236.636, 414.958 248.150, 417.514 258 C 419.723 266.510, 419.723 281.490, 417.514 290 C 415.242 298.756, 409.082 310.263, 402.948 317.209 C 396.225 324.822, 384.832 332.291, 374.715 335.718 L 366.500 338.500 262.500 338.500 C 145.175 338.500, 154.099 339.067, 136.500 330.499 C 109.197 317.206, 92.844 290.799, 92.844 260 C 92.844 226.938, 111.613 199.268, 142.649 186.574 C 147.075 184.764, 148.511 183.416, 152.867 176.984 C 155.655 172.868, 159.957 167.368, 162.429 164.763 L 166.922 160.025 92.535 159.763 L 18.147 159.500 13.139 174.500 M 237.926 160 L 191.351 160.500 187.032 163.359 C 184.656 164.932, 179.514 169.432, 175.606 173.359 L 168.500 180.500 171.500 180.757 C 194.960 182.763, 210.528 189.079, 224.711 202.346 C 232.923 210.028, 239.338 219.007, 243.618 228.809 C 247.650 238.044, 247.839 241.252, 244.545 244.545 C 239.579 249.512, 234.382 247.054, 231.159 238.215 C 226.941 226.649, 218.476 215.581, 208.282 208.307 C 188.242 194.007, 160.638 192.666, 139.342 204.958 C 127.147 211.997, 116.102 225.464, 111.264 239.193 C 107.856 248.865, 107.058 264.326, 109.441 274.500 C 114.658 296.766, 131.921 314.666, 155 321.738 C 159.966 323.260, 170.025 323.455, 258.658 323.744 C 365.814 324.094, 365.088 324.127, 376.814 318.390 C 388.329 312.757, 398.525 300.276, 402.405 287.068 C 404.355 280.429, 404.452 268.286, 402.610 261.368 C 396.337 237.810, 371.730 221.077, 348.545 224.604 L 342.658 225.500 342.890 232.569 C 343.153 240.564, 341.886 244.275, 338.343 245.890 C 334.946 247.437, 333.640 247.291, 330.781 245.042 C 328.517 243.261, 328.229 242.153, 327.603 232.792 C 326.338 213.898, 321.425 198.886, 311.921 184.878 C 307.076 177.736, 293.581 164, 291.410 164 C 290.634 164, 290 163.647, 290 163.216 C 290 162.784, 288.762 161.772, 287.250 160.966 C 284.907 159.717, 277.601 159.574, 237.926 160 M 326.724 159.777 C 318.626 159.929, 312 160.380, 312 160.780 C 312 161.180, 313.395 162.823, 315.099 164.432 C 322.810 171.710, 332.909 188.782, 337.441 202.202 L 339.906 209.500 350.203 209.161 C 360.099 208.835, 372.484 210.662, 377.241 213.150 C 379.818 214.498, 384.463 211.710, 391.469 204.611 L 397.500 198.500 386.378 197.965 C 376.126 197.473, 374.680 197.145, 367.878 193.770 C 355.879 187.816, 347.881 178.552, 343.474 165.500 L 341.448 159.500 326.724 159.777 M 0.428 256 C 0.428 268.375, 0.571 273.438, 0.747 267.250 C 0.922 261.063, 0.922 250.938, 0.747 244.750 C 0.571 238.563, 0.428 243.625, 0.428 256 M 143 361 C 140.473 363.527, 140.433 368.079, 142.912 371.139 C 144.752 373.412, 145.333 373.500, 158.500 373.500 C 171.667 373.500, 172.248 373.412, 174.088 371.139 C 176.574 368.070, 176.521 363.936, 173.961 361.189 C 172.059 359.147, 171.021 359, 158.461 359 C 146.333 359, 144.802 359.198, 143 361 M 191.073 361.635 C 189.933 363.084, 189 364.863, 189 365.588 C 189 368.345, 191.361 371.907, 193.880 372.950 C 195.711 373.708, 222.203 373.954, 281.839 373.767 L 367.177 373.500 369.089 371.139 C 371.567 368.078, 371.527 363.527, 369 361 C 367.031 359.031, 365.667 359, 280.073 359 L 193.145 359 191.073 361.635 M 143.635 393.073 C 140.349 395.657, 140.073 400.628, 143.039 403.811 L 145.078 406 222.605 406 C 275.339 406, 300.765 405.661, 302.114 404.939 C 306.910 402.372, 306.459 394.441, 301.385 392.130 C 299.612 391.322, 277.179 391, 222.588 391 C 146.893 391, 146.248 391.017, 143.635 393.073 M 318.455 393.455 C 315.436 396.473, 315.261 400.830, 318.039 403.811 C 320.024 405.943, 320.693 406, 343.500 406 C 366.307 406, 366.976 405.943, 368.961 403.811 C 371.927 400.628, 371.651 395.657, 368.365 393.073 C 365.878 391.116, 364.478 391, 343.320 391 L 320.909 391 318.455 393.455" stroke="none" fill="#3390ce" fill-rule="evenodd"/></svg>